<svg width="15" height="15" viewBox="0 0 15 15" fill="none" xmlns="http://www.w3.org/2000/svg">
<path fill-rule="evenodd" clip-rule="evenodd" d="M7.03534 0.0703819C7.22302 -0.0234606 7.44394 -0.0234606 7.63162 0.0703819L14.2983 3.40372C14.5241 3.51664 14.6668 3.74749 14.6668 4C14.6668 4.25251 14.5241 4.48336 14.2983 4.59628L7.63162 7.92962C7.44394 8.02346 7.22302 8.02346 7.03534 7.92962L0.36867 4.59628C0.142814 4.48336 0.000146072 4.25251 0.000146072 4C0.000146072 3.74749 0.142814 3.51664 0.36867 3.40372L7.03534 0.0703819ZM2.15752 4L7.33348 6.58798L12.5094 4L7.33348 1.41202L2.15752 4Z" fill="url(#paint0_linear_3013_2379)"/>
<path fill-rule="evenodd" clip-rule="evenodd" d="M0.0705279 7.03519C0.235187 6.70587 0.635636 6.57239 0.964955 6.73705L7.33348 9.92131L13.702 6.73705C14.0313 6.57239 14.4318 6.70587 14.5964 7.03519C14.7611 7.36451 14.6276 7.76496 14.2983 7.92962L7.63162 11.263C7.44394 11.3568 7.22302 11.3568 7.03534 11.263L0.36867 7.92962C0.0393513 7.76496 -0.0941316 7.36451 0.0705279 7.03519Z" fill="url(#paint1_linear_3013_2379)"/>
<path fill-rule="evenodd" clip-rule="evenodd" d="M0.0705279 10.3685C0.235187 10.0392 0.635636 9.90572 0.964955 10.0704L7.33348 13.2546L13.702 10.0704C14.0313 9.90572 14.4318 10.0392 14.5964 10.3685C14.7611 10.6978 14.6276 11.0983 14.2983 11.263L7.63162 14.5963C7.44394 14.6901 7.22302 14.6901 7.03534 14.5963L0.36867 11.263C0.0393514 11.0983 -0.0941316 10.6978 0.0705279 10.3685Z" fill="url(#paint2_linear_3013_2379)"/>
<defs>
<linearGradient id="paint0_linear_3013_2379" x1="-5.46387e-07" y1="14.6667" x2="16.8726" y2="3.26352" gradientUnits="userSpaceOnUse">
<stop stop-color="#FF3F3A"/>
<stop offset="1" stop-color="#F75E05"/>
</linearGradient>
<linearGradient id="paint1_linear_3013_2379" x1="-5.46387e-07" y1="14.6667" x2="16.8726" y2="3.26352" gradientUnits="userSpaceOnUse">
<stop stop-color="#FF3F3A"/>
<stop offset="1" stop-color="#F75E05"/>
</linearGradient>
<linearGradient id="paint2_linear_3013_2379" x1="-5.46387e-07" y1="14.6667" x2="16.8726" y2="3.26352" gradientUnits="userSpaceOnUse">
<stop stop-color="#FF3F3A"/>
<stop offset="1" stop-color="#F75E05"/>
</linearGradient>
</defs>
</svg>
