<svg width="15" height="15" viewBox="0 0 15 15" fill="none" xmlns="http://www.w3.org/2000/svg">
<path fill-rule="evenodd" clip-rule="evenodd" d="M8.6212 1.33333C8.52819 1.33333 8.44197 1.38278 8.39493 1.46337L8.39083 1.4704L5.33333 6.42717V13H11.0572C11.18 13 11.2863 12.9147 11.3129 12.795L11.3152 12.7846L13.0152 6.14484C13.0463 5.98391 12.923 5.83333 12.758 5.83333H10.1667C9.73255 5.83333 9.29327 5.68829 8.97346 5.37615C8.63725 5.048 8.48138 4.57805 8.58141 4.07174L9.06064 1.64603C9.09264 1.48408 8.9687 1.33333 8.80375 1.33333H8.6212ZM4 13V6.90476H1.63769C1.4939 6.90476 1.3769 7.02078 1.37579 7.16474C1.37579 7.16474 1.37579 7.16473 1.37579 7.16474L1.33334 12.7361C1.33222 12.8814 1.44977 13 1.59518 13H4ZM4.2946 5.57143L7.24805 0.78333C7.53493 0.298233 8.05682 0 8.6212 0H8.80375C9.80889 0 10.5635 0.918384 10.3687 1.90445L9.88946 4.33016C9.88093 4.37333 9.88646 4.39295 9.88779 4.39725C9.88927 4.40205 9.89253 4.41003 9.90476 4.42197C9.93265 4.44919 10.0157 4.5 10.1667 4.5H12.758C13.7786 4.5 14.5366 5.44525 14.3152 6.44141L14.3129 6.45181L12.6118 13.096C12.4453 13.8198 11.8008 14.3333 11.0572 14.3333H1.59518C0.709487 14.3333 -0.00674055 13.6117 4.78599e-05 12.726C4.79791e-05 12.726 4.77407e-05 12.726 4.78599e-05 12.726L0.0424965 7.15456C0.0492138 6.27837 0.761356 5.57143 1.63769 5.57143H4.2946Z" fill="url(#paint0_linear_3013_2378)"/>
<defs>
<linearGradient id="paint0_linear_3013_2378" x1="-5.34723e-07" y1="14.3333" x2="16.4978" y2="3.16776" gradientUnits="userSpaceOnUse">
<stop stop-color="#FF3F3A"/>
<stop offset="1" stop-color="#F75E05"/>
</linearGradient>
</defs>
</svg>
