<svg width="134" height="183" viewBox="0 0 134 183" fill="none" xmlns="http://www.w3.org/2000/svg">
<path d="M39.7976 176.798C41.2697 176.792 42.3781 177.896 42.3837 179.373C42.3894 180.85 41.2896 181.962 39.8174 181.968C38.3453 181.973 37.2369 180.87 37.2313 179.393C37.2256 177.916 38.4481 176.803 39.7976 176.798Z" fill="#FFCF2D"/>
<path d="M39.7126 154.766C41.1847 154.76 42.2931 155.864 42.2988 157.341C42.3045 158.818 41.2046 159.93 39.7325 159.935C38.2604 159.941 37.152 158.838 37.1463 157.361C37.1411 156.007 38.3631 154.771 39.7126 154.766Z" fill="#FFCF2D"/>
<path d="M39.6286 132.857C41.1008 132.851 42.2091 133.954 42.2148 135.432C42.2205 136.909 41.1206 138.021 39.6485 138.026C38.1764 138.032 37.068 136.928 37.0623 135.451C37.0566 133.974 38.2792 132.862 39.6286 132.857Z" fill="#FFCF2D"/>
<path d="M39.5437 110.824C41.0158 110.819 42.1242 111.922 42.1298 113.399C42.1355 114.876 41.0357 115.988 39.5635 115.994C38.0914 116 36.983 114.896 36.9774 113.419C36.9717 111.942 38.1942 110.83 39.5437 110.824Z" fill="#FFCF2D"/>
<path d="M39.4592 88.7922C40.9313 88.7865 42.0397 89.89 42.0454 91.3671C42.0511 92.8441 40.9512 93.9561 39.4791 93.9618C38.0069 93.9674 36.8986 92.8639 36.8929 91.3869C36.8877 90.0329 38.1097 88.7974 39.4592 88.7922Z" fill="#FFCF2D"/>
<path d="M39.3742 66.7599C40.8464 66.7543 41.9547 67.8578 41.9604 69.3348C41.9661 70.8119 40.8662 71.9239 39.3941 71.9295C37.922 71.9352 36.8136 70.8317 36.8079 69.3547C36.8022 67.8776 38.0248 66.7651 39.3742 66.7599Z" fill="#FFCF2D"/>
<path d="M39.2898 44.8508C40.7619 44.8451 41.8703 45.9486 41.8759 47.4256C41.8816 48.9027 40.7818 50.0147 39.3096 50.0204C37.8375 50.026 36.7291 48.9225 36.7235 47.4455C36.7178 45.9684 37.9403 44.8559 39.2898 44.8508Z" fill="#FFCF2D"/>
<path d="M39.2053 22.8185C40.6774 22.8129 41.7858 23.9164 41.7915 25.3934C41.7971 26.8705 40.6973 27.9825 39.2252 27.9881C37.753 27.9938 36.6447 26.8903 36.639 25.4133C36.6333 23.9362 37.8558 22.8237 39.2053 22.8185Z" fill="#FFCF2D"/>
<path d="M39.1203 0.786332C40.5925 0.780669 41.7008 1.88418 41.7065 3.3612C41.7122 4.83823 40.6123 5.95025 39.1402 5.95591C37.6681 5.96157 36.5597 4.85805 36.554 3.38102C36.5488 2.02708 37.7709 0.791523 39.1203 0.786332Z" fill="#FFCF2D"/>
<path d="M58.0764 176.728C59.5485 176.722 60.6569 177.826 60.6626 179.303C60.6682 180.78 59.5684 181.892 58.0963 181.897C56.6241 181.903 55.5158 180.799 55.5101 179.322C55.5044 177.845 56.6042 176.733 58.0764 176.728Z" fill="#FFCF2D"/>
<path d="M57.9914 154.695C59.4636 154.69 60.5719 155.793 60.5776 157.27C60.5833 158.747 59.4834 159.859 58.0113 159.865C56.5392 159.871 55.4308 158.767 55.4251 157.29C55.4199 155.936 56.5193 154.701 57.9914 154.695Z" fill="#FFCF2D"/>
<path d="M57.9074 132.786C59.3796 132.781 60.4879 133.884 60.4936 135.361C60.4993 136.838 59.3995 137.95 57.9273 137.956C56.4552 137.962 55.3468 136.858 55.3411 135.381C55.3355 133.904 56.4353 132.792 57.9074 132.786Z" fill="#FFCF2D"/>
<path d="M57.8225 110.754C59.2946 110.748 60.403 111.852 60.4087 113.329C60.4143 114.806 59.3145 115.918 57.8424 115.924C56.3702 115.929 55.2619 114.826 55.2562 113.349C55.2505 111.872 56.3503 110.76 57.8225 110.754Z" fill="#FFCF2D"/>
<path d="M57.738 88.7219C59.2101 88.7162 60.3185 89.8197 60.3242 91.2967C60.3299 92.7738 59.23 93.8858 57.7579 93.8915C56.2857 93.8971 55.1774 92.7936 55.1717 91.3166C55.1665 89.9626 56.2659 88.7275 57.738 88.7219Z" fill="#FFCF2D"/>
<path d="M57.653 66.6896C59.1252 66.684 60.2335 67.7875 60.2392 69.2645C60.2449 70.7416 59.1451 71.8536 57.6729 71.8592C56.2008 71.8649 55.0924 70.7614 55.0867 69.2843C55.0811 67.8073 56.1809 66.6953 57.653 66.6896Z" fill="#FFCF2D"/>
<path d="M57.5691 44.7805C59.0412 44.7748 60.1496 45.8783 60.1552 47.3553C60.1609 48.8324 59.0611 49.9444 57.5889 49.9501C56.1168 49.9557 55.0084 48.8522 55.0028 47.3752C54.9971 45.8981 56.0969 44.7861 57.5691 44.7805Z" fill="#FFCF2D"/>
<path d="M57.4841 22.7482C58.9562 22.7426 60.0646 23.8461 60.0703 25.3231C60.076 26.8001 58.9761 27.9122 57.504 27.9178C56.0318 27.9235 54.9235 26.82 54.9178 25.3429C54.9121 23.8659 56.012 22.7539 57.4841 22.7482Z" fill="#FFCF2D"/>
<path d="M57.3991 0.716005C58.8713 0.710342 59.9796 1.81385 59.9853 3.29088C59.991 4.76791 58.8912 5.87994 57.419 5.8856C55.9469 5.89126 54.8385 4.78773 54.8328 3.3107C54.8276 1.95676 55.927 0.721667 57.3991 0.716005Z" fill="#FFCF2D"/>
<path d="M3.36202 176.939C4.83416 176.933 5.94252 178.037 5.9482 179.514C5.95389 180.991 4.85404 182.103 3.38191 182.108C1.90977 182.114 0.801403 181.01 0.795721 179.533C0.79004 178.056 1.88988 176.944 3.36202 176.939Z" fill="#FFCF2D"/>
<path d="M3.27706 154.906C4.7492 154.901 5.85756 156.004 5.86324 157.481C5.86892 158.958 4.76908 160.07 3.29694 160.076C1.82481 160.082 0.716442 158.978 0.710761 157.501C0.705553 156.147 1.80492 154.912 3.27706 154.906Z" fill="#FFCF2D"/>
<path d="M3.19307 132.997C4.66521 132.992 5.77358 134.095 5.77926 135.572C5.78494 137.049 4.6851 138.161 3.21296 138.167C1.74082 138.173 0.631984 136.946 0.626776 135.592C0.621095 134.115 1.72094 133.003 3.19307 132.997Z" fill="#FFCF2D"/>
<path d="M3.10811 110.965C4.58025 110.959 5.68862 112.063 5.6943 113.54C5.69998 115.017 4.60014 116.129 3.128 116.135C1.65586 116.14 0.547023 114.914 0.541815 113.56C0.536607 112.206 1.63598 110.971 3.10811 110.965Z" fill="#FFCF2D"/>
<path d="M3.02364 88.9328C4.49578 88.9271 5.60414 90.0307 5.60983 91.5077C5.61551 92.9847 4.51566 94.0967 3.04353 94.1024C1.57139 94.1081 0.463024 93.0045 0.457343 91.5275C0.452135 90.1736 1.5515 88.9385 3.02364 88.9328Z" fill="#FFCF2D"/>
<path d="M2.93868 66.8996C4.41082 66.8939 5.51918 67.9975 5.52486 69.4745C5.53055 70.9515 4.4307 72.0635 2.95857 72.0692C1.48643 72.0749 0.378063 70.9713 0.372382 69.4943C0.3667 68.0173 1.46654 66.9053 2.93868 66.8996Z" fill="#FFCF2D"/>
<path d="M2.8547 44.9914C4.32683 44.9857 5.4352 46.0893 5.44088 47.5663C5.44656 49.0433 4.34672 50.1553 2.87458 50.161C1.40244 50.1667 0.294079 49.0631 0.288397 47.5861C0.282716 46.1091 1.38256 44.9971 2.8547 44.9914Z" fill="#FFCF2D"/>
<path d="M2.76974 22.9582C4.24187 22.9525 5.35024 24.056 5.35592 25.5331C5.3616 27.0101 4.26176 28.1221 2.78962 28.1278C1.31748 28.1334 0.209118 27.0299 0.203436 25.5529C0.197755 24.0759 1.2976 22.9638 2.76974 22.9582Z" fill="#FFCF2D"/>
<path d="M2.68477 0.925981C4.15691 0.920318 5.26528 2.02383 5.27096 3.50085C5.27664 4.97787 4.1768 6.0899 2.70466 6.09556C1.23252 6.10122 0.124157 4.99769 0.118475 3.52067C0.113267 2.16673 1.21264 0.931643 2.68477 0.925981Z" fill="#FFCF2D"/>
<path d="M21.6413 176.868C23.1135 176.863 24.2218 177.966 24.2275 179.443C24.2332 180.92 23.0107 182.033 21.6612 182.038C20.1891 182.044 19.0807 180.94 19.075 179.463C19.0693 177.986 20.1692 176.874 21.6413 176.868Z" fill="#FFCF2D"/>
<path d="M21.5564 154.836C23.0285 154.83 24.1369 155.934 24.1425 157.411C24.1482 158.888 23.0484 160 21.5762 160.006C20.1041 160.011 18.9957 158.908 18.9901 157.431C18.9848 156.077 20.0842 154.842 21.5564 154.836Z" fill="#FFCF2D"/>
<path d="M21.4724 132.927C22.9445 132.921 24.0529 134.025 24.0586 135.502C24.0642 136.979 22.9644 138.091 21.4923 138.097C20.0201 138.102 18.9118 136.999 18.9061 135.522C18.9004 134.045 20.0002 132.933 21.4724 132.927Z" fill="#FFCF2D"/>
<path d="M21.3874 110.895C22.8595 110.889 23.9679 111.993 23.9736 113.47C23.9793 114.947 22.8794 116.059 21.4073 116.064C19.9352 116.07 18.8268 114.966 18.8211 113.489C18.8154 112.012 19.9153 110.9 21.3874 110.895Z" fill="#FFCF2D"/>
<path d="M21.3025 88.8625C22.7746 88.8568 23.883 89.9603 23.8886 91.4374C23.8943 92.9144 22.7945 94.0264 21.3223 94.0321C19.8502 94.0377 18.7418 92.9342 18.7362 91.4572C18.7309 90.1032 19.8303 88.8681 21.3025 88.8625Z" fill="#FFCF2D"/>
<path d="M21.218 66.8293C22.6901 66.8236 23.7985 67.9271 23.8042 69.4042C23.8098 70.8812 22.71 71.9932 21.2379 71.9989C19.7657 72.0045 18.6574 70.901 18.6517 69.424C18.646 67.947 19.7458 66.8349 21.218 66.8293Z" fill="#FFCF2D"/>
<path d="M21.1335 44.9211C22.6056 44.9154 23.714 46.0189 23.7197 47.496C23.7254 48.973 22.6255 50.085 21.1534 50.0907C19.6813 50.0963 18.5729 48.9928 18.5672 47.5158C18.5615 46.0388 19.6614 44.9267 21.1335 44.9211Z" fill="#FFCF2D"/>
<path d="M21.049 22.8879C22.5212 22.8822 23.6295 23.9857 23.6352 25.4628C23.6409 26.9398 22.5411 28.0518 21.0689 28.0575C19.5968 28.0631 18.4884 26.9596 18.4827 25.4826C18.4771 24.0056 19.5769 22.8935 21.049 22.8879Z" fill="#FFCF2D"/>
<path d="M20.9641 0.855653C22.4362 0.84999 23.5446 1.9535 23.5503 3.43053C23.5559 4.90756 22.4561 6.01958 20.984 6.02525C19.5118 6.03091 18.4035 4.92738 18.3978 3.45035C18.3926 2.09641 19.4919 0.861316 20.9641 0.855653Z" fill="#FFCF2D"/>
<path d="M76.2331 176.658C77.7053 176.653 78.8136 177.756 78.8193 179.233C78.825 180.71 77.7251 181.822 76.253 181.828C74.7809 181.834 73.6725 180.73 73.6668 179.253C73.6611 177.776 74.8837 176.664 76.2331 176.658Z" fill="#FFCF2D"/>
<path d="M76.1481 154.626C77.6203 154.62 78.7286 155.724 78.7343 157.201C78.74 158.678 77.6402 159.79 76.168 159.796C74.6959 159.801 73.5875 158.698 73.5819 157.221C73.5766 155.867 74.7987 154.631 76.1481 154.626Z" fill="#FFCF2D"/>
<path d="M76.0642 132.717C77.5363 132.711 78.6447 133.815 78.6504 135.292C78.656 136.769 77.5562 137.881 76.0841 137.887C74.6119 137.892 73.5036 136.789 73.4979 135.312C73.4922 133.835 74.7147 132.722 76.0642 132.717Z" fill="#FFCF2D"/>
<path d="M75.9792 110.685C77.4513 110.679 78.5597 111.783 78.5654 113.26C78.5711 114.737 77.4712 115.849 75.9991 115.854C74.527 115.86 73.4186 114.756 73.4129 113.279C73.4072 111.802 74.6297 110.69 75.9792 110.685Z" fill="#FFCF2D"/>
<path d="M75.8942 88.6525C77.3664 88.6469 78.4747 89.7504 78.4804 91.2274C78.4861 92.7044 77.3863 93.8165 75.9141 93.8221C74.442 93.8278 73.3336 92.7243 73.3279 91.2472C73.3227 89.8933 74.5448 88.6577 75.8942 88.6525Z" fill="#FFCF2D"/>
<path d="M75.8098 66.6193C77.2819 66.6137 78.3903 67.7172 78.396 69.1942C78.4016 70.6712 77.3018 71.7833 75.8297 71.7889C74.3575 71.7946 73.2492 70.6911 73.2435 69.214C73.2378 67.737 74.4603 66.6245 75.8098 66.6193Z" fill="#FFCF2D"/>
<path d="M75.7253 44.7111C77.1974 44.7054 78.3058 45.809 78.3115 47.286C78.3172 48.763 77.2173 49.8751 75.7452 49.8807C74.273 49.8864 73.1647 48.7828 73.159 47.3058C73.1533 45.8288 74.3758 44.7163 75.7253 44.7111Z" fill="#FFCF2D"/>
<path d="M75.6408 22.6779C77.113 22.6722 78.2213 23.7758 78.227 25.2528C78.2327 26.7298 77.1329 27.8418 75.6607 27.8475C74.1886 27.8532 73.0802 26.7497 73.0745 25.2726C73.0688 23.7956 74.2914 22.6831 75.6408 22.6779Z" fill="#FFCF2D"/>
<path d="M75.5559 0.645692C77.028 0.640029 78.1364 1.74354 78.142 3.22057C78.1477 4.6976 77.0479 5.80962 75.5757 5.81529C74.1036 5.82095 72.9953 4.71742 72.9896 3.24039C72.9844 1.88645 74.2064 0.650883 75.5559 0.645692Z" fill="#FFCF2D"/>
<path d="M94.5119 176.588C95.9841 176.582 97.0924 177.686 97.0981 179.163C97.1038 180.64 96.0039 181.752 94.5318 181.758C93.0597 181.763 91.9513 180.66 91.9456 179.183C91.9399 177.706 93.0398 176.594 94.5119 176.588Z" fill="#FFCF2D"/>
<path d="M94.427 154.556C95.8991 154.55 97.0075 155.654 97.0131 157.131C97.0188 158.608 95.919 159.72 94.4468 159.725C92.9747 159.731 91.8663 158.628 91.8607 157.151C91.8555 155.797 92.9548 154.562 94.427 154.556Z" fill="#FFCF2D"/>
<path d="M94.343 132.647C95.8151 132.641 96.9235 133.745 96.9292 135.222C96.9348 136.699 95.835 137.811 94.3629 137.816C92.8907 137.822 91.7824 136.718 91.7767 135.241C91.771 133.764 92.8708 132.652 94.343 132.647Z" fill="#FFCF2D"/>
<path d="M96.8442 113.189C96.8387 111.762 95.6808 110.609 94.258 110.614C92.8352 110.62 91.6862 111.782 91.6917 113.209C91.6972 114.637 92.8551 115.79 94.2779 115.784C95.7007 115.779 96.8497 114.617 96.8442 113.189Z" fill="#FFCF2D"/>
<path d="M94.1735 88.5812C95.6457 88.5756 96.754 89.6791 96.7597 91.1561C96.7654 92.6332 95.6656 93.7452 94.1934 93.7508C92.7213 93.7565 91.6129 92.653 91.6072 91.1759C91.602 89.822 92.7014 88.5869 94.1735 88.5812Z" fill="#FFCF2D"/>
<path d="M94.0886 66.549C95.5607 66.5433 96.6691 67.6469 96.6748 69.1239C96.6804 70.6009 95.5806 71.7129 94.1085 71.7186C92.6363 71.7243 91.528 70.6207 91.5223 69.1437C91.5166 67.6667 92.6164 66.5547 94.0886 66.549Z" fill="#FFCF2D"/>
<path d="M94.0041 44.6408C95.4762 44.6351 96.5846 45.7387 96.5903 47.2157C96.596 48.6927 95.4961 49.8047 94.024 49.8104C92.5519 49.8161 91.4435 48.7125 91.4378 47.2355C91.4321 45.7585 92.532 44.6465 94.0041 44.6408Z" fill="#FFCF2D"/>
<path d="M96.5058 25.1825C96.5003 23.7549 95.3425 22.6021 93.9196 22.6076C92.4968 22.6131 91.3478 23.7748 91.3533 25.2023C91.3588 26.6299 92.5167 27.7827 93.9395 27.7772C95.3623 27.7717 96.5113 26.61 96.5058 25.1825Z" fill="#FFCF2D"/>
<path d="M93.8347 0.57538C95.3068 0.569717 96.4152 1.67323 96.4209 3.15026C96.4265 4.62729 95.3267 5.73931 93.8546 5.74497C92.3824 5.75064 91.2741 4.6471 91.2684 3.17008C91.2632 1.81613 92.3625 0.581042 93.8347 0.57538Z" fill="#FFCF2D"/>
<path d="M112.791 176.518C114.263 176.512 115.372 177.616 115.377 179.093C115.383 180.57 114.283 181.682 112.811 181.687C111.339 181.693 110.231 180.589 110.225 179.112C110.219 177.635 111.319 176.523 112.791 176.518Z" fill="#FFCF2D"/>
<path d="M112.706 154.486C114.178 154.48 115.287 155.583 115.292 157.06C115.298 158.537 114.198 159.649 112.726 159.655C111.254 159.661 110.146 158.557 110.14 157.08C110.135 155.726 111.234 154.491 112.706 154.486Z" fill="#FFCF2D"/>
<path d="M112.622 132.576C114.094 132.571 115.202 133.674 115.208 135.151C115.214 136.628 114.114 137.74 112.642 137.746C111.17 137.752 110.061 136.648 110.055 135.171C110.05 133.694 111.15 132.582 112.622 132.576Z" fill="#FFCF2D"/>
<path d="M112.537 110.544C114.009 110.538 115.118 111.642 115.124 113.119C115.129 114.596 114.029 115.708 112.557 115.714C111.085 115.719 109.977 114.616 109.971 113.139C109.965 111.662 111.065 110.55 112.537 110.544Z" fill="#FFCF2D"/>
<path d="M112.452 88.5109C113.924 88.5053 115.033 89.6088 115.039 91.0858C115.044 92.5628 113.944 93.6749 112.472 93.6805C111 93.6862 109.892 92.5827 109.886 91.1056C109.881 89.7517 110.98 88.5166 112.452 88.5109Z" fill="#FFCF2D"/>
<path d="M112.368 66.4787C113.84 66.473 114.948 67.5766 114.954 69.0536C114.96 70.5306 113.86 71.6426 112.388 71.6483C110.916 71.654 109.807 70.5504 109.802 69.0734C109.796 67.5964 110.896 66.4844 112.368 66.4787Z" fill="#FFCF2D"/>
<path d="M112.283 44.5705C113.756 44.5648 114.864 45.6684 114.87 47.1454C114.875 48.6224 113.775 49.7344 112.303 49.7401C110.831 49.7458 109.723 48.6422 109.717 47.1652C109.711 45.6882 110.811 44.5762 112.283 44.5705Z" fill="#FFCF2D"/>
<path d="M112.199 22.5373C113.671 22.5316 114.779 23.6351 114.785 25.1122C114.791 26.5892 113.691 27.7012 112.219 27.7069C110.747 27.7125 109.638 26.609 109.633 25.132C109.627 23.655 110.727 22.5429 112.199 22.5373Z" fill="#FFCF2D"/>
<path d="M112.114 0.505067C113.586 0.499404 114.694 1.60292 114.7 3.07994C114.706 4.55697 113.606 5.669 112.134 5.67466C110.662 5.68032 109.553 4.57679 109.548 3.09976C109.542 1.74582 110.642 0.51073 112.114 0.505067Z" fill="#FFCF2D"/>
<path d="M130.947 176.447C132.42 176.442 133.528 177.545 133.534 179.022C133.539 180.499 132.44 181.611 130.967 181.617C129.495 181.623 128.387 180.519 128.381 179.042C128.375 177.565 129.598 176.453 130.947 176.447Z" fill="#FFCF2D"/>
<path d="M130.863 154.415C132.335 154.41 133.443 155.513 133.449 156.99C133.454 158.467 132.355 159.579 130.882 159.585C129.41 159.59 128.302 158.487 128.296 157.01C128.291 155.656 129.513 154.42 130.863 154.415Z" fill="#FFCF2D"/>
<path d="M130.779 132.506C132.251 132.5 133.359 133.604 133.365 135.081C133.37 136.558 132.271 137.67 130.798 137.676C129.326 137.681 128.218 136.578 128.212 135.101C128.207 133.624 129.429 132.511 130.779 132.506Z" fill="#FFCF2D"/>
<path d="M130.694 110.474C132.166 110.468 133.274 111.572 133.28 113.049C133.285 114.526 132.186 115.638 130.713 115.643C129.241 115.649 128.133 114.546 128.127 113.069C128.122 111.591 129.344 110.479 130.694 110.474Z" fill="#FFCF2D"/>
<path d="M130.609 88.4416C132.081 88.4359 133.189 89.5394 133.195 91.0165C133.2 92.4935 132.101 93.6055 130.628 93.6112C129.156 93.6168 128.048 92.5133 128.042 91.0363C128.037 89.6824 129.259 88.4468 130.609 88.4416Z" fill="#FFCF2D"/>
<path d="M130.524 66.4094C131.996 66.4037 133.105 67.5072 133.11 68.9843C133.116 70.4613 132.016 71.5733 130.544 71.579C129.072 71.5846 127.964 70.4811 127.958 69.0041C127.952 67.527 129.175 66.4146 130.524 66.4094Z" fill="#FFCF2D"/>
<path d="M130.44 44.5002C131.912 44.4945 133.02 45.598 133.026 47.0751C133.032 48.5521 131.932 49.6641 130.46 49.6698C128.987 49.6754 127.879 48.5719 127.873 47.0949C127.868 45.6178 129.09 44.5054 130.44 44.5002Z" fill="#FFCF2D"/>
<path d="M130.355 22.4679C131.827 22.4623 132.936 23.5658 132.941 25.0428C132.947 26.5199 131.847 27.6319 130.375 27.6376C128.903 27.6432 127.795 26.5397 127.789 25.0627C127.783 23.5856 129.006 22.4731 130.355 22.4679Z" fill="#FFCF2D"/>
<path d="M130.27 0.435731C131.742 0.430068 132.851 1.53358 132.856 3.01061C132.862 4.48764 131.762 5.59966 130.29 5.60532C128.818 5.61099 127.71 4.50746 127.704 3.03043C127.699 1.67649 128.921 0.440922 130.27 0.435731Z" fill="#FFCF2D"/>
</svg>
